<?xml version="1.0" encoding="utf-8"?>
<!-- Generator: Adobe Illustrator 24.1.2, SVG Export Plug-In . SVG Version: 6.00 Build 0)  -->
<svg version="1.1" id="레이어_1" xmlns="http://www.w3.org/2000/svg" xmlns:xlink="http://www.w3.org/1999/xlink" x="0px"
	 y="0px" viewBox="0 0 373.64 84.09" style="enable-background:new 0 0 373.64 84.09;" xml:space="preserve">
<style type="text/css">
	.st0{fill:#35C8BA;}
</style>
<g>
	<path class="st0" d="M36.53,84.09c-0.6,0-14.89-0.01-21.8-1C6.7,81.93,2.36,73.9,1.36,70.9c-1.04-3.12-4.19-12.62,5.02-30.1
		c9.12-17.31,17.56-19.61,17.92-19.7l0.24-0.06h23.96l0.24,0.06c0.35,0.09,8.8,2.38,17.92,19.7c9.21,17.5,6.06,26.98,5.02,30.1
		c-1.24,3.73-5.63,11.08-13.37,12.19C51.41,84.08,37.13,84.09,36.53,84.09z M25.12,25.09c-1.13,0.44-7.73,3.51-15.15,17.6
		C1.57,58.65,4.31,66.91,5.22,69.62c0.72,2.18,4.13,8.59,10.1,9.45c6.61,0.95,21.07,0.96,21.22,0.96s14.6-0.01,21.22-0.96
		c5.96-0.85,9.37-7.27,10.09-9.45c0.9-2.71,3.64-10.97-4.76-26.94l0,0c-7.38-14.03-13.96-17.13-15.16-17.6H25.12z"/>
</g>
<g>
	<path class="st0" d="M46.43,18.12H25.27l-0.53-1.26c-0.02-0.05-1.97-4.63-3.88-8.24c-1.49-2.8-0.76-4.8-0.19-5.74
		C21.75,1.08,23.98,0,26.63,0h19.8c2.65,0,4.88,1.08,5.97,2.89c0.57,0.94,1.3,2.94-0.19,5.74c-1.91,3.6-3.86,8.19-3.88,8.24
		l-0.53,1.26H46.43z M27.98,14h17.1c0.73-1.66,2.1-4.69,3.49-7.31c0.23-0.43,0.57-1.23,0.3-1.69c-0.27-0.44-1.19-0.89-2.44-0.89
		h-19.8c-1.25,0-2.17,0.45-2.44,0.89c-0.28,0.46,0.07,1.25,0.3,1.69C25.88,9.31,27.25,12.34,27.98,14z"/>
</g>
<g>
	<path class="st0" d="M43.29,71.34c-3.33,0-6.61-1.53-8.72-4.42L24.25,52.76c-1.69-2.32-2.38-5.17-1.94-8.01
		c0.45-2.84,1.97-5.34,4.3-7.04c4.8-3.5,11.55-2.44,15.05,2.36l10.32,14.16c3.49,4.81,2.44,11.56-2.36,15.05l0,0
		C47.71,70.67,45.49,71.34,43.29,71.34z M32.94,39.65c-1.42,0-2.8,0.45-3.97,1.3c-1.46,1.06-2.42,2.63-2.69,4.42
		s0.15,3.57,1.21,5.03l10.32,14.16c2.19,3.01,6.43,3.67,9.45,1.48l0,0c3.01-2.19,3.67-6.43,1.48-9.45L38.42,42.43
		c-1.06-1.46-2.63-2.42-4.42-2.69C33.65,39.68,33.29,39.65,32.94,39.65z"/>
</g>
<path class="st0" d="M31.03,58.66l5.16,7.08c2.85,3.91,8.33,4.77,12.25,1.92s4.78-8.33,1.93-12.25l-5.16-7.08L31.03,58.66z"/>
<path class="st0" d="M138.94,45.91h-9.61v28.21h-25.91c-1.9,0-3.62-0.3-5.15-0.91s-2.84-1.45-3.93-2.54
	c-1.09-1.09-1.94-2.4-2.54-3.93s-0.91-3.25-0.91-5.15V10.6h13.23v21.59h11.98V10.6h13.23v24.17h9.61V10.6h13.23v63.52h-13.23
	L138.94,45.91L138.94,45.91z M116.09,42.29h-11.98v18.6c0,0.83,0.25,1.51,0.77,2.02c0.51,0.51,1.18,0.77,2.02,0.77h9.19V42.29z"/>
<path class="st0" d="M211.37,58.03h-13.23V46.88h13.23V33.65h-9.4c-0.79,4.04-2.66,7.22-5.61,9.54s-6.63,3.48-11.04,3.48h-3.2
	c-2.09,0-3.77,0.78-5.05,2.33c-1.28,1.56-1.92,3.61-1.92,6.16s0.7,4.61,2.09,6.16c1.39,1.56,3.25,2.33,5.57,2.33h19.64V74.1h-22.84
	c-2.65,0-5.06-0.44-7.24-1.32c-2.18-0.88-4.05-2.15-5.61-3.79c-1.56-1.65-2.75-3.62-3.59-5.92c-0.84-2.3-1.25-4.86-1.25-7.7
	s0.41-5.4,1.22-7.7s1.96-4.26,3.45-5.88c1.49-1.62,3.27-2.89,5.36-3.8s4.41-1.36,6.96-1.36h3.27c2.09,0,3.77-0.71,5.05-2.13
	c1.28-1.42,1.92-3.31,1.92-5.68s-0.7-4.26-2.09-5.68s-3.25-2.12-5.57-2.12h-18.18V10.6h21.31c4.18,0,7.73,1.06,10.66,3.17
	c2.93,2.11,4.97,5.03,6.13,8.74h9.96V10.6h13.23v63.52h-13.23L211.37,58.03L211.37,58.03z"/>
<path class="st0" d="M234.35,74.12V63.67h11.49V48.35c-3.76-1.3-6.73-3.47-8.91-6.51c-2.18-3.04-3.27-6.95-3.27-11.73
	c0-3.2,0.52-6.04,1.57-8.5c1.04-2.46,2.48-4.52,4.32-6.16c1.83-1.65,4.03-2.89,6.58-3.73c2.55-0.83,5.36-1.25,8.43-1.25h23.68
	c3.06,0,5.87,0.42,8.43,1.25c2.55,0.84,4.75,2.08,6.58,3.73s3.27,3.7,4.32,6.16c1.04,2.46,1.57,5.29,1.57,8.5
	c0,4.78-1.09,8.69-3.27,11.73s-5.15,5.21-8.91,6.51v15.32h11.49v10.45C298.45,74.12,234.35,74.12,234.35,74.12z M276.41,39.29
	c1.25,0,2.45-0.19,3.59-0.56c1.14-0.37,2.15-0.94,3.03-1.71s1.58-1.73,2.09-2.89s0.77-2.51,0.77-4.04s-0.26-2.88-0.77-4.04
	c-0.51-1.16-1.21-2.13-2.09-2.89c-0.88-0.77-1.89-1.33-3.03-1.71c-1.14-0.37-2.33-0.56-3.59-0.56h-20.06
	c-1.25,0-2.45,0.19-3.59,0.56c-1.14,0.37-2.15,0.94-3.03,1.71c-0.88,0.77-1.58,1.73-2.09,2.89s-0.77,2.51-0.77,4.04
	s0.25,2.88,0.77,4.04c0.51,1.16,1.21,2.13,2.09,2.89c0.88,0.77,1.89,1.33,3.03,1.71c1.14,0.37,2.33,0.56,3.59,0.56H276.41z
	 M273.7,63.67V49.74h-14.63v13.93C259.07,63.67,273.7,63.67,273.7,63.67z"/>
<path class="st0" d="M323.84,43.47c-2.46,0-4.72-0.37-6.79-1.11s-3.87-1.82-5.4-3.24s-2.73-3.13-3.59-5.15s-1.29-4.33-1.29-6.93
	c0-2.55,0.43-4.85,1.29-6.89c0.86-2.04,2.05-3.77,3.59-5.19c1.53-1.42,3.33-2.5,5.4-3.24s4.33-1.11,6.79-1.11h5.71
	c2.41,0,4.67,0.37,6.76,1.11s3.9,1.82,5.43,3.24s2.73,3.15,3.59,5.19s1.29,4.34,1.29,6.89c0,2.6-0.43,4.91-1.29,6.93
	c-0.86,2.02-2.05,3.74-3.59,5.15c-1.53,1.42-3.34,2.5-5.43,3.24s-4.34,1.11-6.76,1.11H323.84z M353.44,58.1h-45.27V47.65h58.5v26.46
	h-13.23V58.1z M320.01,27.04c0,1.77,0.43,3.2,1.29,4.32c0.86,1.11,2.12,1.67,3.8,1.67h3.2c1.67,0,2.94-0.56,3.8-1.67
	c0.86-1.12,1.29-2.55,1.29-4.32c0-1.76-0.43-3.2-1.29-4.32c-0.86-1.11-2.12-1.67-3.8-1.67h-3.2c-1.67,0-2.94,0.56-3.8,1.67
	C320.44,23.83,320.01,25.27,320.01,27.04z M353.44,10.6h13.23v3.97h6.96v11.14h-6.96v3.48h6.96v11.14h-6.96v3.13h-13.23V10.6z"/>
</svg>
